<?xml version="1.0" encoding="UTF-8"?>
<svg id="_圖層_1" data-name=" 圖層 1" xmlns="http://www.w3.org/2000/svg" xmlns:xlink="http://www.w3.org/1999/xlink" viewBox="0 0 580 580">
  <defs>
    <style>
      .cls-1, .cls-2 {
        fill: none;
      }

      .cls-3 {
        isolation: isolate;
      }

      .cls-2 {
        stroke: #c48c31;
        stroke-width: .5px;
      }
    </style>
  </defs>
  <g id="_圖層_2" data-name=" 圖層 2">
    <image class="cls-3" width="3000" height="3000" transform="scale(.19)" xlink:href="TRTS_Route_Map_after_2017.jpg"/>
  </g>
  <g id="Transfor">
    <path id="O11_R13" data-name="O11 R13" class="cls-1" d="M233.13,243.41h-12.24c-1.69,0-3.06,1.35-3.06,3.02v5.58c0,1.66,1.37,3.02,3.06,3.02h12.24c1.69,0,3.06-1.36,3.06-3.02v-5.58c0-1.67-1.37-3.02-3.06-3.02"/>
    <path id="G14_R11" data-name="G14 R11" class="cls-1" d="M233.13,285.35h-12.24c-1.68,0-3.06,1.36-3.06,3.02v5.58c0,1.67,1.37,3.02,3.06,3.02h12.24c1.69,0,3.06-1.35,3.06-3.02v-5.58c0-1.66-1.37-3.02-3.06-3.02"/>
    <path id="B12_R10" data-name="B12 R10" class="cls-1" d="M233.14,323.78h-12.24c-1.69,0-3.06,1.35-3.06,3.02v5.58c0,1.67,1.37,3.02,3.06,3.02h12.24c1.69,0,3.06-1.36,3.06-3.02v-5.58c0-1.67-1.37-3.02-3.06-3.02"/>
    <path id="G10_R08" data-name="G10 R08" class="cls-1" d="M233.13,365.93h-12.24c-1.68,0-3.06,1.36-3.06,3.02v5.58c0,1.67,1.37,3.02,3.06,3.02h12.24c1.69,0,3.06-1.35,3.06-3.02v-5.58c0-1.66-1.37-3.02-3.06-3.02"/>
    <path id="R07_O06" data-name="R07 O06" class="cls-1" d="M275.83,366.06h-12.24c-1.68,0-3.05,1.36-3.05,3.02v5.58c0,1.66,1.37,3.02,3.05,3.02h12.24c1.68,0,3.05-1.36,3.05-3.02v-5.58c0-1.66-1.37-3.02-3.05-3.02"/>
    <path id="R05_BR09" data-name="R05 BR09" class="cls-1" d="M327.09,366.06h-12.24c-1.68,0-3.06,1.36-3.06,3.02v5.58c0,1.66,1.37,3.02,3.06,3.02h12.24c1.69,0,3.06-1.36,3.06-3.02v-5.58c0-1.67-1.37-3.02-3.06-3.02"/>
    <path id="G15_O08" data-name="G15 O08" class="cls-1" d="M281.1,285.35h-12.24c-1.68,0-3.05,1.36-3.05,3.02v5.58c0,1.67,1.37,3.02,3.05,3.02h12.24c1.69,0,3.06-1.35,3.06-3.02v-5.58c0-1.66-1.37-3.02-3.06-3.02"/>
    <path id="BL14_O07" data-name="BL14 O07" class="cls-1" d="M281.1,323.77h-12.25c-1.68,0-3.05,1.36-3.05,3.02v5.58c0,1.66,1.37,3.02,3.05,3.02h12.25c1.68,0,3.06-1.36,3.06-3.02v-5.58c0-1.67-1.37-3.02-3.06-3.02"/>
    <path id="G09_O05" data-name="G09 O05" class="cls-1" d="M254.59,388.21h-12.24c-1.69,0-3.06,1.35-3.06,3.02v5.58c0,1.66,1.37,3.02,3.06,3.02h12.24c1.69,0,3.06-1.36,3.06-3.02v-5.58c0-1.66-1.37-3.02-3.06-3.02"/>
    <path id="BL11_G12" data-name="BL11 G12" class="cls-1" d="M199.6,323.78h-12.25c-1.68,0-3.06,1.35-3.06,3.02v5.58c0,1.66,1.37,3.02,3.06,3.02h12.25c1.68,0,3.06-1.36,3.06-3.02v-5.58c0-1.67-1.37-3.02-3.06-3.02"/>
    <path id="G16_BR11" data-name="G16 BR11" class="cls-1" d="M327.1,285.35h-12.25c-1.69,0-3.05,1.36-3.05,3.02v5.58c0,1.67,1.36,3.02,3.05,3.02h12.25c1.69,0,3.05-1.35,3.05-3.02v-5.58c0-1.66-1.37-3.02-3.05-3.02"/>
    <path id="BL15_BR10" data-name="BL15 BR10" class="cls-1" d="M327.1,323.77h-12.25c-1.69,0-3.06,1.36-3.06,3.02v5.58c0,1.66,1.37,3.02,3.06,3.02h12.25c1.68,0,3.05-1.36,3.05-3.02v-5.58c0-1.67-1.37-3.02-3.05-3.02"/>
    <path id="BL23_BR24" data-name="BL23 BR24" class="cls-1" d="M516.93,298h-11.65c-1.68,0-3.05,1.35-3.05,3.02v5.58c0,1.67,1.37,3.02,3.05,3.02h11.65c1.68,0,3.05-1.36,3.05-3.02v-5.58c0-1.67-1.37-3.02-3.05-3.02"/>
  </g>
  <g id="StationO">
    <path id="O54" class="cls-1" d="M90.49,161.35h-3.51c-1.24,0-2.26,1-2.26,2.23v5.66c0,1.23,1.02,2.23,2.26,2.23h3.51c1.25,0,2.26-1,2.26-2.23v-5.66c0-1.23-1.01-2.23-2.26-2.23"/>
    <path id="O53" class="cls-1" d="M101.18,184.61c0,1.1.9,1.98,2.01,1.98h3.51c1.11,0,2.01-.88,2.01-1.98v-5.66c0-1.09-.9-1.98-2.01-1.98h-3.51c-1.11,0-2.01.89-2.01,1.98v5.66Z"/>
    <path id="O52" class="cls-1" d="M118.38,201.32c0,1.09.9,1.98,2.01,1.98h3.51c1.11,0,2.01-.89,2.01-1.98v-5.66c0-1.09-.9-1.98-2.01-1.98h-3.51c-1.11,0-2.01.89-2.01,1.98v5.66Z"/>
    <path id="O51" class="cls-1" d="M134.43,216.9c0,1.1.9,1.98,2.01,1.98h3.51c1.11,0,2.01-.89,2.01-1.98v-5.66c0-1.09-.9-1.98-2.01-1.98h-3.51c-1.11,0-2.01.89-2.01,1.98v5.66Z"/>
    <path id="O50" class="cls-1" d="M150.91,233.01c0,1.09.9,1.98,2.01,1.98h3.51c1.11,0,2.01-.89,2.01-1.98v-5.66c0-1.09-.9-1.98-2.01-1.98h-3.51c-1.11,0-2.01.89-2.01,1.98v5.66Z"/>
    <path id="O21" class="cls-1" d="M33.05,385.14h-3.51c-1.24,0-2.26,1-2.26,2.23v5.66c0,1.23,1.01,2.23,2.26,2.23h3.51c1.25,0,2.26-1,2.26-2.23v-5.66c0-1.23-1.01-2.23-2.26-2.23"/>
    <path id="O20" class="cls-1" d="M43.74,376.65c0,1.1.9,1.98,2,1.98h3.51c1.11,0,2.01-.88,2.01-1.98v-5.66c0-1.09-.9-1.98-2.01-1.98h-3.51c-1.11,0-2,.89-2,1.98v5.66Z"/>
    <path id="O19" class="cls-1" d="M59.08,361.18c0,1.09.9,1.98,2,1.98h3.51c1.11,0,2.01-.89,2.01-1.98v-5.66c0-1.09-.9-1.98-2.01-1.98h-3.51c-1.11,0-2,.89-2,1.98,0,0,0,5.66,0,5.66Z"/>
    <path id="O18" class="cls-1" d="M75.44,346.07c0,1.1.9,1.98,2.01,1.98h3.51c1.11,0,2.01-.89,2.01-1.98v-5.66c0-1.09-.9-1.98-2.01-1.98h-3.51c-1.11,0-2.01.89-2.01,1.98v5.66Z"/>
    <path id="O17" class="cls-1" d="M92.29,329.76c0,1.1.9,1.98,2.01,1.98h3.51c1.11,0,2.01-.88,2.01-1.98v-5.65c0-1.1-.9-1.98-2.01-1.98h-3.51c-1.11,0-2.01.89-2.01,1.98v5.65Z"/>
    <path id="O16" class="cls-1" d="M108.63,313.36c0,1.1.9,1.98,2.01,1.98h3.51c1.11,0,2.01-.89,2.01-1.98v-5.66c0-1.09-.9-1.98-2.01-1.98h-3.51c-1.11,0-2.01.89-2.01,1.98v5.66Z"/>
    <path id="O15" class="cls-1" d="M125.25,297.07c0,1.1.9,1.98,2.01,1.98h3.51c1.11,0,2.01-.88,2.01-1.98v-5.66c0-1.1-.9-1.98-2.01-1.98h-3.51c-1.11,0-2.01.89-2.01,1.98v5.66Z"/>
    <path id="O14" class="cls-1" d="M141.01,282.06c0,1.1.9,1.99,2.01,1.99h3.51c1.11,0,2.01-.89,2.01-1.99v-5.66c0-1.09-.9-1.98-2.01-1.98h-3.51c-1.11,0-2.01.89-2.01,1.98v5.66Z"/>
    <path id="O13" class="cls-1" d="M156.2,266.44c0,1.09.9,1.98,2.01,1.98h3.51c1.11,0,2.01-.89,2.01-1.98v-5.66c0-1.09-.9-1.98-2.01-1.98h-3.51c-1.11,0-2.01.89-2.01,1.98v5.66Z"/>
    <path id="O12" class="cls-1" d="M190.39,252.04c0,1.1.9,1.98,2.01,1.98h3.51c1.11,0,2.01-.89,2.01-1.98v-5.66c0-1.1-.9-1.98-2.01-1.98h-3.51c-1.11,0-2.01.89-2.01,1.98v5.66Z"/>
    <path id="O10" class="cls-1" d="M256.94,252.04c0,1.1.9,1.98,2.01,1.98h3.51c1.11,0,2.01-.89,2.01-1.98v-5.65c0-1.1-.9-1.98-2.01-1.98h-3.51c-1.11,0-2.01.89-2.01,1.98v5.65Z"/>
    <path id="O09" class="cls-1" d="M271.21,266.44c0,1.1.9,1.98,2.01,1.98h3.51c1.11,0,2.01-.89,2.01-1.98v-5.65c0-1.1-.9-1.98-2.01-1.98h-3.51c-1.11,0-2.01.89-2.01,1.98v5.65Z"/>
    <path id="O04" class="cls-1" d="M227.66,422.35c0,1.1.9,1.98,2.01,1.98h3.51c1.11,0,2.01-.88,2.01-1.98v-5.66c0-1.1-.9-1.98-2.01-1.98h-3.51c-1.11,0-2.01.89-2.01,1.98v5.66Z"/>
    <path id="O03" class="cls-1" d="M227.66,444.44c0,1.1.9,1.98,2.01,1.98h3.51c1.11,0,2.01-.89,2.01-1.98v-5.66c0-1.09-.9-1.98-2.01-1.98h-3.51c-1.11,0-2.01.89-2.01,1.98v5.66Z"/>
    <path id="O02" class="cls-1" d="M227.66,466.53c0,1.09.9,1.98,2.01,1.98h3.51c1.11,0,2.01-.89,2.01-1.98v-5.66c0-1.09-.9-1.98-2.01-1.98h-3.51c-1.11,0-2.01.89-2.01,1.98v5.66Z"/>
    <path id="O01" class="cls-1" d="M233.17,480.74h-3.51c-1.25,0-2.26,1-2.26,2.23v5.66c0,1.23,1.01,2.23,2.26,2.23h3.51c1.25,0,2.26-1,2.26-2.23v-5.66c0-1.23-1.01-2.23-2.26-2.23"/>
  </g>
  <g id="StationR">
    <path id="R28" class="cls-1" d="M83.2,31.45h-3.51c-1.25,0-2.26,1-2.26,2.23v5.66c0,1.23,1.01,2.23,2.26,2.23h3.51c1.25,0,2.26-1,2.26-2.23v-5.66c0-1.23-1.01-2.23-2.26-2.23"/>
    <path id="R27" class="cls-1" d="M77.68,61.88c0,1.1.9,1.98,2.01,1.98h3.51c1.11,0,2.01-.89,2.01-1.98v-5.66c0-1.1-.9-1.98-2.01-1.98h-3.51c-1.11,0-2.01.89-2.01,1.98v5.66Z"/>
    <path id="R26" class="cls-1" d="M77.68,84.42c0,1.1.9,1.98,2.01,1.98h3.51c1.11,0,2.01-.89,2.01-1.98v-5.66c0-1.1-.9-1.98-2.01-1.98h-3.51c-1.11,0-2.01.89-2.01,1.98v5.66Z"/>
    <path id="R25" class="cls-1" d="M84.34,108.04c0,1.09.9,1.98,2.01,1.98h3.51c1.11,0,2.01-.89,2.01-1.98v-5.66c0-1.1-.9-1.98-2.01-1.98h-3.51c-1.11,0-2.01.89-2.01,1.98,0,0,0,5.66,0,5.66Z"/>
    <path id="R24" class="cls-1" d="M108.12,108.03c0,1.09.9,1.98,2.01,1.98h3.51c1.11,0,2.01-.89,2.01-1.98v-5.66c0-1.09-.9-1.98-2.01-1.98h-3.51c-1.11,0-2.01.89-2.01,1.98v5.66Z"/>
    <path id="R23" class="cls-1" d="M131.56,108.03c0,1.09.9,1.98,2.01,1.98h3.51c1.11,0,2.01-.89,2.01-1.98v-5.66c0-1.09-.9-1.98-2.01-1.98h-3.51c-1.11,0-2.01.89-2.01,1.98v5.66Z"/>
    <path id="R22" class="cls-1" d="M155,108.03c0,1.09.9,1.98,2.01,1.98h3.51c1.11,0,2.01-.89,2.01-1.98v-5.66c0-1.09-.9-1.98-2.01-1.98h-3.51c-1.11,0-2.01.89-2.01,1.98v5.66Z"/>
    <path id="R22A" class="cls-1" d="M160.32,80.29h-3.51c-1.25,0-2.26,1-2.26,2.23v5.66c0,1.23,1.01,2.23,2.26,2.23h3.51c1.25,0,2.26-1,2.26-2.23v-5.66c0-1.23-1.01-2.23-2.26-2.23"/>
    <path id="R21" class="cls-1" d="M178.45,108.03c0,1.09.9,1.98,2.01,1.98h3.51c1.11,0,2.01-.89,2.01-1.98v-5.66c0-1.09-.9-1.98-2.01-1.98h-3.51c-1.11,0-2.01.89-2.01,1.98v5.66Z"/>
    <path id="R20" class="cls-1" d="M201.89,108.03c0,1.09.9,1.98,2.01,1.98h3.51c1.11,0,2.01-.89,2.01-1.98v-5.66c0-1.09-.9-1.98-2.01-1.98h-3.51c-1.11,0-2.01.89-2.01,1.98v5.66Z"/>
    <path id="R19" class="cls-1" d="M223.33,115.48c0,1.1.9,1.98,2.01,1.98h3.51c1.11,0,2.01-.89,2.01-1.98v-5.66c0-1.09-.9-1.98-2.01-1.98h-3.51c-1.11,0-2.01.89-2.01,1.98,0,0,0,5.66,0,5.66Z"/>
    <path id="R18" class="cls-1" d="M223.33,136.97c0,1.09.9,1.98,2.01,1.98h3.51c1.11,0,2.01-.89,2.01-1.98v-5.66c0-1.09-.9-1.98-2.01-1.98h-3.51c-1.11,0-2.01.89-2.01,1.98v5.66Z"/>
    <path id="R17" class="cls-1" d="M223.33,158.46c0,1.1.9,1.98,2.01,1.98h3.51c1.11,0,2.01-.89,2.01-1.98v-5.66c0-1.09-.9-1.98-2.01-1.98h-3.51c-1.11,0-2.01.89-2.01,1.98v5.66Z"/>
    <path id="R16" class="cls-1" d="M223.33,179.96c0,1.1.9,1.98,2.01,1.98h3.51c1.11,0,2.01-.89,2.01-1.98v-5.66c0-1.09-.9-1.98-2.01-1.98h-3.51c-1.11,0-2.01.89-2.01,1.98v5.66Z"/>
    <path id="R15" class="cls-1" d="M223.33,201.45c0,1.1.9,1.98,2.01,1.98h3.51c1.11,0,2.01-.89,2.01-1.98v-5.66c0-1.1-.9-1.98-2.01-1.98h-3.51c-1.11,0-2.01.89-2.01,1.98v5.66Z"/>
    <path id="R14" class="cls-1" d="M223.33,222.94c0,1.1.9,1.98,2.01,1.98h3.51c1.11,0,2.01-.89,2.01-1.98v-5.66c0-1.09-.9-1.98-2.01-1.98h-3.51c-1.11,0-2.01.89-2.01,1.98v5.66Z"/>
    <path id="R12" class="cls-1" d="M223.33,270.6c0,1.1.9,1.98,2.01,1.98h3.51c1.11,0,2.01-.89,2.01-1.98v-5.66c0-1.09-.9-1.98-2.01-1.98h-3.51c-1.11,0-2.01.89-2.01,1.98v5.66Z"/>
    <path id="R09" class="cls-1" d="M223.25,353.57c0,1.1.9,1.98,2.01,1.98h3.51c1.11,0,2.01-.89,2.01-1.98v-5.66c0-1.09-.9-1.98-2.01-1.98h-3.51c-1.11,0-2.01.89-2.01,1.98v5.66Z"/>
    <path id="R06" class="cls-1" d="M291.72,374.7c0,1.1.9,1.98,2.02,1.98h3.51c1.11,0,2.01-.88,2.01-1.98v-5.65c0-1.1-.9-1.98-2.01-1.98h-3.51c-1.11,0-2.02.89-2.02,1.98v5.65Z"/>
    <path id="R04" class="cls-1" d="M347.3,374.7c0,1.1.9,1.98,2.01,1.98h3.51c1.11,0,2.01-.88,2.01-1.98v-5.65c0-1.1-.9-1.98-2.01-1.98h-3.51c-1.11,0-2.01.89-2.01,1.98v5.65Z"/>
    <path id="R03" class="cls-1" d="M370.75,374.7c0,1.1.9,1.98,2.01,1.98h3.51c1.11,0,2.01-.88,2.01-1.98v-5.65c0-1.1-.9-1.98-2.01-1.98h-3.51c-1.11,0-2.01.89-2.01,1.98v5.65Z"/>
    <path id="R02" class="cls-1" d="M400.13,366.68h-3.51c-1.25,0-2.26,1-2.26,2.23v5.66c0,1.23,1.01,2.23,2.26,2.23h3.51c1.25,0,2.26-1,2.26-2.23v-5.66c0-1.23-1.01-2.23-2.26-2.23"/>
  </g>
  <g id="StationG">
    <path id="G01" class="cls-1" d="M304.45,540.43h-3.52c-1.24,0-2.26,1-2.26,2.23v5.66c0,1.23,1.01,2.23,2.26,2.23h3.52c1.24,0,2.26-1,2.26-2.23v-5.66c0-1.23-1.01-2.23-2.26-2.23"/>
    <path id="G02" class="cls-1" d="M298.93,526.96c0,1.1.9,1.98,2.01,1.98h3.51c1.11,0,2.01-.89,2.01-1.98v-5.66c0-1.1-.9-1.98-2.01-1.98h-3.51c-1.11,0-2.01.89-2.01,1.98v5.66Z"/>
    <path id="G03" class="cls-1" d="M298.93,505.61c0,1.09.9,1.98,2.01,1.98h3.51c1.1,0,2-.89,2-1.98v-5.66c0-1.09-.9-1.98-2-1.98h-3.51c-1.11,0-2.01.89-2.01,1.98v5.66Z"/>
    <path id="G03A" class="cls-1" d="M286.19,497.54h-3.51c-1.25,0-2.26,1-2.26,2.23v5.66c0,1.23,1.02,2.23,2.26,2.23h3.51c1.24,0,2.26-1,2.26-2.23v-5.66c0-1.23-1.02-2.23-2.26-2.23"/>
    <path id="G04" class="cls-1" d="M298.93,484.25c0,1.1.9,1.98,2.01,1.98h3.51c1.1,0,2-.89,2-1.98v-5.65c0-1.1-.9-1.98-2-1.98h-3.51c-1.11,0-2.01.89-2.01,1.98v5.65Z"/>
    <path id="G05" class="cls-1" d="M298.93,462.9c0,1.09.9,1.98,2.01,1.98h3.51c1.1,0,2-.89,2-1.98v-5.66c0-1.1-.9-1.98-2-1.98h-3.51c-1.11,0-2.01.89-2.01,1.98v5.66Z"/>
    <path id="G06" class="cls-1" d="M290,442.89c0,1.09.9,1.98,2.01,1.98h3.51c1.11,0,2-.89,2-1.98v-5.66c0-1.1-.9-1.98-2-1.98h-3.51c-1.11,0-2.01.89-2.01,1.98v5.66Z"/>
    <path id="G07" class="cls-1" d="M275.86,428.13c0,1.1.9,1.98,2.01,1.98h3.51c1.11,0,2.01-.89,2.01-1.98v-5.66c0-1.09-.9-1.98-2.01-1.98h-3.51c-1.11,0-2.01.89-2.01,1.98v5.66Z"/>
    <path id="G08" class="cls-1" d="M261.55,413.6c0,1.1.9,1.98,2.01,1.98h3.51c1.11,0,2.01-.89,2.01-1.98v-5.66c0-1.09-.9-1.98-2.01-1.98h-3.51c-1.11,0-2.01.89-2.01,1.98v5.66Z"/>
    <path id="G11" class="cls-1" d="M189.88,365.9c0,1.1.9,1.98,2.01,1.98h3.51c1.11,0,2.01-.89,2.01-1.98v-5.66c0-1.1-.9-1.98-2.01-1.98h-3.51c-1.11,0-2.01.89-2.01,1.98v5.66Z"/>
    <path id="G13" class="cls-1" d="M189.73,309.77c0,1.1.9,1.98,2.01,1.98h3.51c1.11,0,2.01-.88,2.01-1.98v-5.66c0-1.09-.9-1.98-2.01-1.98h-3.51c-1.11,0-2.01.89-2.01,1.98v5.66Z"/>
    <path id="G17" class="cls-1" d="M349.04,293.99c0,1.09.9,1.98,2.01,1.98h3.51c1.11,0,2.01-.89,2.01-1.98v-5.65c0-1.1-.9-1.98-2.01-1.98h-3.51c-1.11,0-2.01.89-2.01,1.98v5.65Z"/>
    <path id="G18" class="cls-1" d="M381.05,293.99c0,1.09.9,1.98,2.01,1.98h3.51c1.11,0,2.01-.89,2.01-1.98v-5.65c0-1.1-.9-1.98-2.01-1.98h-3.51c-1.11,0-2.01.89-2.01,1.98v5.65Z"/>
    <path id="G19" class="cls-1" d="M422.58,286.1h-3.51c-1.25,0-2.26,1-2.26,2.23v5.66c0,1.23,1.01,2.23,2.26,2.23h3.51c1.24,0,2.26-1,2.26-2.23v-5.66c0-1.23-1.01-2.23-2.26-2.23"/>
  </g>
  <g id="StationBL">
    <path id="BL01" class="cls-1" d="M88.26,521.61h-3.34c-1.18,0-2.15-.95-2.15-2.12v-5.38c0-1.17.97-2.12,2.15-2.12h3.34c1.18,0,2.15.95,2.15,2.12v5.38c0,1.17-.96,2.12-2.15,2.12"/>
    <path id="BL02" class="cls-1" d="M97.6,504.54c0,1.1.9,1.98,2.01,1.98h3.51c1.11,0,2.01-.88,2.01-1.98v-5.66c0-1.09-.9-1.98-2.01-1.98h-3.51c-1.11,0-2.01.89-2.01,1.98v5.66Z"/>
    <path id="BL03" class="cls-1" d="M108.89,483.75c0,1.09.9,1.98,2.01,1.98h3.51c1.11,0,2.01-.89,2.01-1.98v-5.66c0-1.09-.9-1.98-2.01-1.98h-3.51c-1.11,0-2.01.89-2.01,1.98v5.66Z"/>
    <path id="BL04" class="cls-1" d="M108.89,461.12c0,1.09.9,1.98,2.01,1.98h3.51c1.11,0,2.01-.89,2.01-1.98v-5.66c0-1.1-.9-1.98-2.01-1.98h-3.51c-1.11,0-2.01.89-2.01,1.98v5.66Z"/>
    <path id="BL05" class="cls-1" d="M108.79,438.49c0,1.1.9,1.98,2.01,1.98h3.51c1.11,0,2.01-.89,2.01-1.98v-5.66c0-1.09-.9-1.98-2.01-1.98h-3.51c-1.11,0-2.01.89-2.01,1.98v5.66Z"/>
    <path id="BL06" class="cls-1" d="M108.19,415.56c0,1.1.9,1.98,2.01,1.98h3.51c1.11,0,2.01-.88,2.01-1.98v-5.66c0-1.09-.9-1.98-2.01-1.98h-3.51c-1.11,0-2.01.89-2.01,1.98v5.66Z"/>
    <path id="BL07" class="cls-1" d="M114.84,393.82c0,1.09.9,1.98,2.01,1.98h3.51c1.11,0,2.01-.88,2.01-1.98v-5.66c0-1.1-.9-1.98-2.01-1.98h-3.51c-1.11,0-2.01.89-2.01,1.98v5.66Z"/>
    <path id="BL08" class="cls-1" d="M131.75,376.14c0,1.1.9,1.98,2.01,1.98h3.51c1.11,0,2.01-.89,2.01-1.98v-5.66c0-1.1-.9-1.98-2.01-1.98h-3.51c-1.11,0-2.01.89-2.01,1.98v5.66Z"/>
    <path id="BL09" class="cls-1" d="M147.69,360.03c0,1.1.9,1.98,2.01,1.98h3.51c1.11,0,2.01-.89,2.01-1.98v-5.66c0-1.09-.9-1.98-2.01-1.98h-3.51c-1.11,0-2.01.89-2.01,1.98v5.66Z"/>
    <path id="BL10" class="cls-1" d="M163.59,343.81c0,1.1.9,1.98,2.01,1.98h3.51c1.11,0,2-.88,2-1.98v-5.66c0-1.09-.9-1.98-2-1.98h-3.51c-1.11,0-2.01.89-2.01,1.98v5.66Z"/>
    <path id="BL13" class="cls-1" d="M247.69,332.42c0,1.09.9,1.98,2.01,1.98h3.51c1.1,0,2-.89,2-1.98v-5.66c0-1.1-.9-1.98-2-1.98h-3.51c-1.11,0-2.01.89-2.01,1.98v5.66Z"/>
    <path id="BL16" class="cls-1" d="M346.53,332.42c0,1.09.9,1.98,2.01,1.98h3.51c1.11,0,2.01-.89,2.01-1.98v-5.66c0-1.1-.9-1.98-2.01-1.98h-3.51c-1.11,0-2.01.89-2.01,1.98v5.66Z"/>
    <path id="BL17" class="cls-1" d="M370.69,332.42c0,1.09.9,1.98,2.01,1.98h3.51c1.11,0,2.01-.89,2.01-1.98v-5.66c0-1.1-.9-1.98-2.01-1.98h-3.51c-1.11,0-2.01.89-2.01,1.98v5.66Z"/>
    <path id="BL18" class="cls-1" d="M393.46,332.42c0,1.09.9,1.98,2.01,1.98h3.52c1.1,0,2-.89,2-1.98v-5.66c0-1.1-.9-1.98-2-1.98h-3.52c-1.11,0-2.01.89-2.01,1.98v5.66Z"/>
    <path id="BL19" class="cls-1" d="M418.17,332.42c0,1.09.9,1.98,2.01,1.98h3.51c1.1,0,2.01-.89,2.01-1.98v-5.66c0-1.1-.9-1.98-2.01-1.98h-3.51c-1.11,0-2.01.89-2.01,1.98v5.66Z"/>
    <path id="BL20" class="cls-1" d="M439.85,322.27c0,1.1.9,1.98,2.01,1.98h3.51c1.11,0,2.01-.89,2.01-1.98v-5.66c0-1.09-.9-1.98-2.01-1.98h-3.51c-1.11,0-2.01.89-2.01,1.98v5.66Z"/>
    <path id="BL21" class="cls-1" d="M455.8,307.01c0,1.09.9,1.98,2.01,1.98h3.51c1.11,0,2.01-.89,2.01-1.98v-5.66c0-1.09-.9-1.98-2.01-1.98h-3.51c-1.11,0-2.01.89-2.01,1.98v5.66Z"/>
    <path id="BL22" class="cls-1" d="M479.04,306.57c0,1.1.9,1.98,2,1.98h3.51c1.11,0,2.01-.89,2.01-1.98v-5.65c0-1.09-.9-1.98-2.01-1.98h-3.51c-1.11,0-2,.89-2,1.98v5.65Z"/>
  </g>
  <g id="StationBR">
    <path id="BR01" class="cls-1" d="M436.64,460.77h-3.51c-1.24,0-2.26,1-2.26,2.23v5.66c0,1.23,1.01,2.23,2.26,2.23h3.51c1.25,0,2.26-1,2.26-2.23v-5.66c0-1.23-1.01-2.23-2.26-2.23"/>
    <path id="BR02" class="cls-1" d="M408.13,468.66c0,1.1.9,1.98,2,1.98h3.51c1.11,0,2.01-.89,2.01-1.98v-5.66c0-1.09-.9-1.98-2.01-1.98h-3.51c-1.11,0-2,.89-2,1.98v5.66Z"/>
    <path id="BR03" class="cls-1" d="M385.15,468.66c0,1.1.9,1.98,2.01,1.98h3.51c1.11,0,2.01-.89,2.01-1.98v-5.66c0-1.09-.9-1.98-2.01-1.98h-3.51c-1.11,0-2.01.89-2.01,1.98v5.66Z"/>
    <path id="BR04" class="cls-1" d="M368.38,455.73c0,1.1.9,1.98,2.01,1.98h3.51c1.11,0,2.01-.89,2.01-1.98v-5.65c0-1.09-.9-1.98-2.01-1.98h-3.51c-1.1,0-2.01.89-2.01,1.98v5.65Z"/>
    <path id="BR05" class="cls-1" d="M368.38,434.13c0,1.1.9,1.98,2.01,1.98h3.51c1.11,0,2.01-.88,2.01-1.98v-5.66c0-1.09-.9-1.98-2.01-1.98h-3.51c-1.1,0-2.01.89-2.01,1.98v5.66Z"/>
    <path id="BR06" class="cls-1" d="M360.35,407.75c0,1.09.9,1.98,2.01,1.98h3.51c1.11,0,2.01-.89,2.01-1.98v-5.66c0-1.09-.9-1.98-2.01-1.98h-3.51c-1.1,0-2.01.89-2.01,1.98v5.66Z"/>
    <path id="BR07" class="cls-1" d="M338.2,407.75c0,1.1.9,1.99,2,1.99h3.51c1.1,0,2.01-.89,2.01-1.99v-5.65c0-1.09-.9-1.98-2.01-1.98h-3.51c-1.11,0-2,.89-2,1.98v5.65Z"/>
    <path id="BR08" class="cls-1" d="M317.21,399.05c0,1.09.9,1.98,2,1.98h3.51c1.11,0,2.01-.89,2.01-1.98v-5.66c0-1.09-.9-1.98-2.01-1.98h-3.51c-1.11,0-2,.89-2,1.98v5.66Z"/>
    <path id="BR12" class="cls-1" d="M317.21,264.44c0,1.1.9,1.98,2.01,1.98h3.51c1.11,0,2.01-.89,2.01-1.98v-5.66c0-1.1-.9-1.98-2.01-1.98h-3.51c-1.11,0-2.01.89-2.01,1.98v5.66Z"/>
    <path id="BR13" class="cls-1" d="M317.21,239.49c0,1.1.9,1.98,2.01,1.98h3.51c1.11,0,2.01-.89,2.01-1.98v-5.66c0-1.09-.9-1.98-2.01-1.98h-3.51c-1.11,0-2.01.89-2.01,1.98v5.66Z"/>
    <path id="BR14" class="cls-1" d="M326.31,214.6c0,1.09.9,1.98,2.01,1.98h3.51c1.11,0,2.01-.89,2.01-1.98v-5.66c0-1.09-.9-1.98-2.01-1.98h-3.51c-1.11,0-2.01.89-2.01,1.98v5.66Z"/>
    <path id="BR15" class="cls-1" d="M353.56,214.6c0,1.09.9,1.98,2.01,1.98h3.51c1.11,0,2.01-.89,2.01-1.98v-5.66c0-1.09-.9-1.98-2.01-1.98h-3.51c-1.11,0-2.01.89-2.01,1.98v5.66Z"/>
    <path id="BR16" class="cls-1" d="M380.81,214.6c0,1.1.9,1.98,2.01,1.98h3.51c1.11,0,2.01-.89,2.01-1.98v-5.65c0-1.1-.9-1.98-2.01-1.98h-3.51c-1.11,0-2.01.89-2.01,1.98v5.65Z"/>
    <path id="BR17" class="cls-1" d="M408.06,214.6c0,1.1.9,1.98,2.01,1.98h3.51c1.11,0,2.01-.89,2.01-1.98v-5.66c0-1.1-.9-1.99-2.01-1.99h-3.51c-1.11,0-2.01.89-2.01,1.99v5.66Z"/>
    <path id="BR18" class="cls-1" d="M435.31,214.6c0,1.1.9,1.98,2.01,1.98h3.51c1.11,0,2.01-.89,2.01-1.98v-5.66c0-1.1-.9-1.99-2.01-1.99h-3.51c-1.1,0-2.01.89-2.01,1.99v5.66Z"/>
    <path id="BR19" class="cls-1" d="M462.55,214.6c0,1.1.9,1.98,2.01,1.98h3.51c1.11,0,2.01-.89,2.01-1.98v-5.66c0-1.1-.9-1.99-2.01-1.99h-3.51c-1.11,0-2.01.89-2.01,1.99v5.66Z"/>
    <path id="BR20" class="cls-1" d="M489.8,214.69c0,1.1.9,1.98,2,1.98h3.51c1.11,0,2.01-.89,2.01-1.98v-5.65c0-1.09-.9-1.98-2.01-1.98h-3.51c-1.11,0-2,.89-2,1.98v5.65Z"/>
    <path id="BR21" class="cls-1" d="M507.21,232.26c0,1.09.9,1.98,2.01,1.98h3.51c1.11,0,2-.89,2-1.98v-5.66c0-1.09-.9-1.98-2-1.98h-3.51c-1.11,0-2.01.89-2.01,1.98v5.66h0Z"/>
    <path id="BR22" class="cls-1" d="M507.19,256.68c0,1.09.9,1.98,2.01,1.98h3.51c1.11,0,2-.89,2-1.98v-5.66c0-1.1-.9-1.98-2-1.98h-3.51c-1.11,0-2.01.89-2.01,1.98v5.66Z"/>
    <path id="BR23" class="cls-2" d="M507.49,280.81c0,1.1.9,1.98,2.01,1.98h3.51c1.11,0,2.01-.89,2.01-1.98v-5.66c0-1.1-.9-1.98-2.01-1.98h-3.51c-1.11,0-2.01.89-2.01,1.98v5.66Z"/>
  </g>
</svg>